Newsreader-SemiBold.ufo
<glyph name="one" format="2">
  <advance width="1184.8"/>
  <unicode hex="0031"/>
  <outline>
    <contour>
      <point x="545.608" y="105.872" type="line"/>
      <point x="271.664" y="45.24" type="line"/>
      <point x="271.664" y="0.0" type="line"/>
      <point x="1051.376" y="0.0" type="line"/>
      <point x="1051.376" y="45.24" type="line"/>
      <point x="794.28" y="105.872" type="line"/>
      <point x="794.28" y="1351.52" type="line"/>
      <point x="687.568" y="1351.52" type="line"/>
      <point x="158.128" y="1078.016" type="line"/>
      <point x="180.456" y="1019.512" type="line"/>
      <point x="604.6" y="1145.2" type="line"/>
      <point x="545.608" y="1206.6" type="line"/>
    </contour>
  </outline>
</glyph>
<glyph name="H" format="2">
  <advance width="1622.176"/>
  <unicode hex="0048"/>
  <anchor x="810.8" y="1340.0" name="UCtop"/>
  <anchor x="810.8" y="0.0" name="bottom"/>
  <outline>
    <contour>
      <point x="481.01599999999996" y="98.208" type="line"/>
      <point x="481.01599999999996" y="1241.792" type="line"/>
      <point x="630.5360000000001" y="1298.032" type="line"/>
      <point x="630.5360000000001" y="1340.0" type="line"/>
      <point x="73.976" y="1340.0" type="line"/>
      <point x="73.976" y="1298.032" type="line"/>
      <point x="223.496" y="1241.792" type="line"/>
      <point x="223.496" y="98.208" type="line"/>
      <point x="73.976" y="41.968" type="line"/>
      <point x="73.976" y="0.0" type="line"/>
      <point x="630.5360000000001" y="0.0" type="line"/>
      <point x="630.5360000000001" y="41.968" type="line"/>
    </contour>
    <contour>
      <point x="1398.68" y="98.208" type="line"/>
      <point x="1398.68" y="1241.792" type="line"/>
      <point x="1548.2" y="1298.032" type="line"/>
      <point x="1548.2" y="1340.0" type="line"/>
      <point x="991.64" y="1340.0" type="line"/>
      <point x="991.64" y="1298.032" type="line"/>
      <point x="1141.16" y="1241.792" type="line"/>
      <point x="1141.16" y="98.208" type="line"/>
      <point x="991.64" y="41.968" type="line"/>
      <point x="991.64" y="0.0" type="line"/>
      <point x="1548.2" y="0.0" type="line"/>
      <point x="1548.2" y="41.968" type="line"/>
    </contour>
    <contour>
      <point x="334.8" y="627.52" type="line"/>
      <point x="1287.8" y="627.52" type="line"/>
      <point x="1287.8" y="740.176" type="line"/>
      <point x="334.8" y="740.176" type="line"/>
    </contour>
  </outline>
</glyph>
<glyph name="J" format="2">
  <advance width="892.336"/>
  <unicode hex="004A"/>
  <anchor x="569.776" y="1340.0" name="UCtop"/>
  <anchor x="434.616" y="0.0" name="bottom"/>
  <outline>
    <contour>
      <point x="700.264" y="447.808" type="curve" smooth="yes"/>
      <point x="698.5360000000001" y="1241.792" type="line"/>
      <point x="847.48" y="1298.032" type="line"/>
      <point x="847.48" y="1340.0" type="line"/>
      <point x="285.136" y="1340.0" type="line"/>
      <point x="285.136" y="1298.032" type="line"/>
      <point x="441.016" y="1241.792" type="line"/>
      <point x="441.016" y="332.28" type="line" smooth="yes"/>
      <point x="441.016" y="157.632"/>
      <point x="382.4" y="93.264"/>
      <point x="298.848" y="93.264" type="curve" smooth="yes"/>
      <point x="224.144" y="93.264"/>
      <point x="146.968" y="199.256"/>
      <point x="97.272" y="199.256" type="curve" smooth="yes"/>
      <point x="37.576" y="199.256"/>
      <point x="4.792" y="154.472"/>
      <point x="4.792" y="104.536" type="curve" smooth="yes"/>
      <point x="4.792" y="25.392"/>
      <point x="77.456" y="-23.816"/>
      <point x="196.504" y="-23.816" type="curve" smooth="yes"/>
      <point x="474.88" y="-23.816"/>
      <point x="700.264" y="162.656"/>
    </contour>
  </outline>
</glyph>
<glyph name="Z" format="2">
  <advance width="1270.136"/>
  <unicode hex="005A"/>
  <anchor x="674.288" y="1340.0" name="UCtop"/>
  <anchor x="642.304" y="0.0" name="bottom"/>
  <outline>
    <contour>
      <point x="1173.104" y="1340.0" type="line"/>
      <point x="305.32" y="1340.0" type="line"/>
      <point x="170.632" y="1405.36" type="line"/>
      <point x="142.848" y="1405.36" type="line"/>
      <point x="59.519999999999996" y="949.344" type="line"/>
      <point x="108.304" y="936.224" type="line"/>
      <point x="308.44" y="1227.344" type="line"/>
      <point x="981.104" y="1227.344" type="line"/>
      <point x="873.128" y="1271.0" type="line"/>
      <point x="86.464" y="38.656" type="line"/>
      <point x="86.464" y="0.0" type="line"/>
      <point x="1009.992" y="0.0" type="line"/>
      <point x="1138.952" y="-58.751999999999995" type="line"/>
      <point x="1163.432" y="-58.751999999999995" type="line"/>
      <point x="1230.368" y="370.016" type="line"/>
      <point x="1180.856" y="380.56" type="line"/>
      <point x="1012.176" y="112.656" type="line"/>
      <point x="289.424" y="112.656" type="line"/>
      <point x="380.44" y="69.0" type="line"/>
      <point x="1173.104" y="1301.344" type="line"/>
    </contour>
  </outline>
</glyph>
<glyph name="bracketleft" format="2">
  <advance width="620.008"/>
  <unicode hex="005B"/>
  <outline>
    <contour>
      <point x="173.008" y="-254.608" type="line"/>
      <point x="591.856" y="-254.608" type="line"/>
      <point x="591.856" y="-171.888" type="line"/>
      <point x="346.896" y="-171.888" type="line"/>
      <point x="346.896" y="1316.28" type="line"/>
      <point x="591.856" y="1316.28" type="line"/>
      <point x="591.856" y="1399.0" type="line"/>
      <point x="173.008" y="1399.0" type="line"/>
    </contour>
  </outline>
</glyph>
<glyph name="e" format="2">
  <advance width="915.4639999999999"/>
  <unicode hex="0065"/>
  <anchor x="470.968" y="860.48" name="top"/>
  <anchor x="859.216" y="0.0" name="right"/>
  <anchor x="485.088" y="0.0" name="bottom"/>
  <outline>
    <contour>
      <point x="490.96" y="884.72" type="curve" smooth="yes"/>
      <point x="218.216" y="884.72"/>
      <point x="63.552" y="671.784"/>
      <point x="63.552" y="416.968" type="curve" smooth="yes"/>
      <point x="63.552" y="165.272"/>
      <point x="234.672" y="-24.240000000000002"/>
      <point x="487.024" y="-24.240000000000002" type="curve" smooth="yes"/>
      <point x="635.864" y="-24.240000000000002"/>
      <point x="752.856" y="54.96"/>
      <point x="859.216" y="181.928" type="curve"/>
      <point x="827.856" y="223.344" type="line"/>
      <point x="755.04" y="167.888"/>
      <point x="685.856" y="143.248"/>
      <point x="605.768" y="143.248" type="curve" smooth="yes"/>
      <point x="413.032" y="143.248"/>
      <point x="284.632" y="269.528"/>
      <point x="284.632" y="484.744" type="curve" smooth="yes"/>
      <point x="284.632" y="707.072"/>
      <point x="362.096" y="794.696"/>
      <point x="470.448" y="794.696" type="curve" smooth="yes"/>
      <point x="570.064" y="794.696"/>
      <point x="617.28" y="703.752"/>
      <point x="627.04" y="545.912" type="curve"/>
      <point x="736.592" y="595.968" type="line"/>
      <point x="231.496" y="569.424" type="line"/>
      <point x="230.344" y="490.976" type="line"/>
      <point x="854.64" y="490.976" type="line"/>
      <point x="832.792" y="739.0"/>
      <point x="708.704" y="884.72"/>
    </contour>
  </outline>
</glyph>
<glyph name="f" format="2">
  <advance width="710.328"/>
  <unicode hex="0066"/>
  <anchor x="550.016" y="1373.984" name="UCtop"/>
  <anchor x="316.744" y="0.0" name="bottom"/>
  <outline>
    <contour>
      <point x="231.04" y="743.888" type="line"/>
      <point x="680.656" y="743.888" type="line"/>
      <point x="700.352" y="860.48" type="line"/>
      <point x="306.888" y="860.48" type="line"/>
      <point x="209.432" y="869.808" type="line"/>
      <point x="23.312" y="795.664" type="line"/>
      <point x="23.312" y="756.608" type="line"/>
      <point x="194.584" y="713.104" type="line"/>
    </contour>
    <contour>
      <point x="426.23199999999997" y="93.48" type="line"/>
      <point x="426.23199999999997" y="1062.112" type="line" smooth="yes"/>
      <point x="426.23199999999997" y="1249.056"/>
      <point x="516.432" y="1319.032"/>
      <point x="620.112" y="1319.032" type="curve" smooth="yes"/>
      <point x="725.84" y="1319.032"/>
      <point x="761.888" y="1203.288"/>
      <point x="860.248" y="1203.288" type="curve" smooth="yes"/>
      <point x="916.912" y="1203.288"/>
      <point x="966.12" y="1245.8"/>
      <point x="966.12" y="1308.28" type="curve" smooth="yes"/>
      <point x="966.12" y="1371.728"/>
      <point x="903.248" y="1423.24"/>
      <point x="756.68" y="1423.24" type="curve" smooth="yes"/>
      <point x="463.584" y="1423.24"/>
      <point x="194.584" y="1250.496"/>
      <point x="194.584" y="861.44" type="curve" smooth="yes"/>
      <point x="194.584" y="90.088" type="line"/>
      <point x="62.088" y="39.12" type="line"/>
      <point x="62.088" y="0.0" type="line"/>
      <point x="579.424" y="0.0" type="line"/>
      <point x="579.424" y="39.12" type="line"/>
    </contour>
  </outline>
</glyph>
<glyph name="x" format="2">
  <advance width="1008.248"/>
  <unicode hex="0078"/>
  <anchor x="513.472" y="860.48" name="top"/>
  <anchor x="513.472" y="0.0" name="bottom"/>
  <outline>
    <contour>
      <point x="902.744" y="90.848" type="line"/>
      <point x="589.0" y="500.592" type="line"/>
      <point x="564.848" y="527.592" type="line"/>
      <point x="379.448" y="778.024" type="line"/>
      <point x="489.728" y="817.056" type="line"/>
      <point x="489.728" y="860.48" type="line"/>
      <point x="17.888" y="860.48" type="line"/>
      <point x="17.888" y="817.056" type="line"/>
      <point x="125.77600000000001" y="769.632" type="line"/>
      <point x="426.88" y="378.648" type="line"/>
      <point x="447.336" y="353.224" type="line"/>
      <point x="649.072" y="82.456" type="line"/>
      <point x="543.032" y="43.424" type="line"/>
      <point x="543.032" y="0.0" type="line"/>
      <point x="1010.632" y="0.0" type="line"/>
      <point x="1010.632" y="43.424" type="line"/>
    </contour>
    <contour>
      <point x="508.472" y="410.416" type="line"/>
      <point x="557.616" y="428.848" type="line"/>
      <point x="859.944" y="778.36" type="line"/>
      <point x="966.944" y="817.056" type="line"/>
      <point x="966.944" y="860.48" type="line"/>
      <point x="627.592" y="860.48" type="line"/>
      <point x="627.592" y="817.056" type="line"/>
      <point x="740.624" y="779.632" type="line"/>
      <point x="497.536" y="479.184" type="line"/>
      <point x="449.088" y="460.752" type="line"/>
      <point x="120.368" y="82.12" type="line"/>
      <point x="11.4" y="43.424" type="line"/>
      <point x="11.4" y="0.0" type="line"/>
      <point x="357.296" y="0.0" type="line"/>
      <point x="357.296" y="43.424" type="line"/>
      <point x="240.264" y="80.848" type="line"/>
    </contour>
  </outline>
</glyph>
<glyph name="z" format="2">
  <advance width="870.424"/>
  <unicode hex="007A"/>
  <anchor x="464.504" y="860.48" name="top"/>
  <anchor x="451.744" y="0.0" name="bottom"/>
  <outline>
    <contour>
      <point x="58.912" y="0.0" type="line"/>
      <point x="770.48" y="0.0" type="line"/>
      <point x="841.688" y="289.352" type="line"/>
      <point x="785.088" y="289.352" type="line"/>
      <point x="612.344" y="34.12" type="line"/>
      <point x="689.936" y="100.352" type="line"/>
      <point x="203.968" y="84.664" type="line"/>
      <point x="305.504" y="36.184" type="line"/>
      <point x="807.272" y="827.576" type="line"/>
      <point x="807.272" y="860.48" type="line"/>
      <point x="218.12" y="860.48" type="line"/>
      <point x="135.824" y="884.72" type="line"/>
      <point x="105.096" y="884.72" type="line"/>
      <point x="56.616" y="578.64" type="line"/>
      <point x="113.456" y="578.64" type="line"/>
      <point x="260.056" y="833.208" type="line"/>
      <point x="139.128" y="760.976" type="line"/>
      <point x="662.888" y="774.968" type="line"/>
      <point x="556.68" y="822.296" type="line"/>
      <point x="58.912" y="32.480000000000004" type="line"/>
    </contour>
  </outline>
</glyph>
<glyph name="exclamdown" format="2">
  <advance width="506.888"/>
  <unicode hex="00A1"/>
  <outline>
    <contour>
      <point x="111.992" y="-423.512" type="line" smooth="yes"/>
      <point x="111.416" y="-482.04"/>
      <point x="182.248" y="-510.304"/>
      <point x="253.07999999999998" y="-510.304" type="curve" smooth="yes"/>
      <point x="323.912" y="-510.304"/>
      <point x="394.744" y="-482.04"/>
      <point x="394.168" y="-423.512" type="curve" smooth="yes"/>
      <point x="391.86400000000003" y="-322.112" type="line" smooth="yes"/>
      <point x="390.13599999999997" y="-211.704"/>
      <point x="347.11199999999997" y="-0.9119999999999919"/>
      <point x="285.624" y="412.992" type="curve"/>
      <point x="220.536" y="412.992" type="line"/>
      <point x="159.048" y="-0.9119999999999919"/>
      <point x="116.024" y="-211.704"/>
      <point x="114.29599999999999" y="-322.112" type="curve" smooth="yes"/>
    </contour>
    <contour>
      <point x="253.38400000000001" y="576.936" type="curve" smooth="yes"/>
      <point x="340.76800000000003" y="576.936"/>
      <point x="404.064" y="642.656"/>
      <point x="404.064" y="724.344" type="curve" smooth="yes"/>
      <point x="404.064" y="806.456"/>
      <point x="340.76800000000003" y="872.176"/>
      <point x="253.38400000000001" y="872.176" type="curve" smooth="yes"/>
      <point x="166.0" y="872.176"/>
      <point x="102.70400000000001" y="806.456"/>
      <point x="102.70400000000001" y="724.344" type="curve" smooth="yes"/>
      <point x="102.70400000000001" y="642.656"/>
      <point x="166.0" y="576.936"/>
    </contour>
  </outline>
</glyph>
<glyph name="section" format="2">
  <advance width="1101.912"/>
  <unicode hex="00A7"/>
  <outline>
    <contour>
      <point x="495.56" y="-279.24" type="curve" smooth="yes"/>
      <point x="761.888" y="-279.24"/>
      <point x="911.52" y="-143.16"/>
      <point x="911.52" y="44.864000000000004" type="curve" smooth="yes"/>
      <point x="911.52" y="433.496"/>
      <point x="271.296" y="321.79200000000003"/>
      <point x="271.296" y="583.264" type="curve" smooth="yes"/>
      <point x="271.296" y="666.944"/>
      <point x="322.912" y="731.592"/>
      <point x="448.48" y="763.624" type="curve"/>
      <point x="399.064" y="826.592" type="line"/>
      <point x="187.784" y="775.56"/>
      <point x="79.0" y="661.528"/>
      <point x="79.0" y="504.592" type="curve" smooth="yes"/>
      <point x="79.0" y="100.72800000000001"/>
      <point x="727.4639999999999" y="221.6"/>
      <point x="727.4639999999999" y="-45.928" type="curve" smooth="yes"/>
      <point x="727.4639999999999" y="-132.3469090909091"/>
      <point x="663.728" y="-190.128"/>
      <point x="542.424" y="-190.128" type="curve" smooth="yes"/>
      <point x="382.88" y="-190.128"/>
      <point x="372.704" y="-23.224"/>
      <point x="260.8" y="-23.224" type="curve" smooth="yes"/>
      <point x="202.89600000000002" y="-23.224"/>
      <point x="160.232" y="-59.768"/>
      <point x="160.232" y="-119.4" type="curve" smooth="yes"/>
      <point x="160.232" y="-197.392"/>
      <point x="249.288" y="-279.24"/>
    </contour>
    <contour>
      <point x="829.4639999999999" y="513.256" type="curve" smooth="yes"/>
      <point x="829.4639999999999" y="424.968"/>
      <point x="772.088" y="362.624"/>
      <point x="643.64" y="330.592" type="curve"/>
      <point x="701.696" y="268.776" type="line"/>
      <point x="895.696" y="316.928"/>
      <point x="1021.76" y="420.016"/>
      <point x="1021.76" y="591.928" type="curve" smooth="yes"/>
      <point x="1021.76" y="995.792"/>
      <point x="373.296" y="874.92"/>
      <point x="373.296" y="1130.928" type="curve" smooth="yes"/>
      <point x="373.296" y="1217.0"/>
      <point x="439.912" y="1275.128"/>
      <point x="568.704" y="1275.128" type="curve" smooth="yes"/>
      <point x="728.248" y="1275.128"/>
      <point x="738.424" y="1108.224"/>
      <point x="850.328" y="1108.224" type="curve" smooth="yes"/>
      <point x="908.232" y="1108.224"/>
      <point x="950.896" y="1144.768"/>
      <point x="950.896" y="1204.4" type="curve" smooth="yes"/>
      <point x="950.896" y="1282.392"/>
      <point x="861.84" y="1364.24"/>
      <point x="615.568" y="1364.24" type="curve" smooth="yes"/>
      <point x="343.48" y="1364.24"/>
      <point x="189.24" y="1233.92"/>
      <point x="189.24" y="1045.896" type="curve" smooth="yes"/>
      <point x="189.24" y="656.112"/>
      <point x="829.4639999999999" y="774.728"/>
    </contour>
  </outline>
</glyph>
<glyph name="uni00B5" format="2">
  <advance width="1139.936"/>
  <unicode hex="00B5"/>
  <outline>
    <contour>
      <point x="165.736" y="860.48" type="line"/>
      <point x="165.736" y="-520.0" type="line"/>
      <point x="195.24" y="-520.0" type="line"/>
      <point x="364.96" y="-496.216" type="line"/>
      <point x="246.248" y="172.328" type="line"/>
      <point x="232.4" y="172.328" type="line"/>
      <point x="253.064" y="20.88"/>
      <point x="327.608" y="-24.240000000000002"/>
      <point x="441.816" y="-24.240000000000002" type="curve" smooth="yes"/>
      <point x="537.248" y="-24.240000000000002"/>
      <point x="626.248" y="16.432000000000002"/>
      <point x="778.904" y="181.904" type="curve"/>
      <point x="739.632" y="224.992" type="line"/>
      <point x="704.36" y="183.864"/>
      <point x="627.864" y="155.888"/>
      <point x="549.312" y="155.888" type="curve" smooth="yes"/>
      <point x="435.144" y="155.888"/>
      <point x="396.96" y="190.10399999999998"/>
      <point x="396.96" y="291.752" type="curve" smooth="yes"/>
      <point x="396.96" y="860.48" type="line"/>
    </contour>
    <contour>
      <point x="942.744" y="180.088" type="curve" smooth="yes"/>
      <point x="942.744" y="860.48" type="line"/>
      <point x="710.52" y="860.48" type="line"/>
      <point x="710.52" y="184.232" type="line" smooth="yes"/>
      <point x="710.52" y="59.784"/>
      <point x="769.64" y="-23.088"/>
      <point x="897.896" y="-23.088" type="curve" smooth="yes"/>
      <point x="960.92" y="-23.088"/>
      <point x="1038.488" y="11.968"/>
      <point x="1103.24" y="71.544" type="curve"/>
      <point x="1103.24" y="128.992" type="line"/>
      <point x="1071.088" y="112.44800000000001"/>
      <point x="1038.328" y="102.992"/>
      <point x="1010.72" y="102.992" type="curve" smooth="yes"/>
      <point x="965.504" y="102.992"/>
      <point x="942.744" y="128.176"/>
    </contour>
  </outline>
</glyph>
<glyph name="Iogonek" format="2">
  <advance width="704.512"/>
  <unicode hex="012E"/>
  <outline>
    <contour>
      <point x="630.5360000000001" y="41.968" type="line"/>
      <point x="481.01599999999996" y="98.208" type="line"/>
      <point x="481.01599999999996" y="1241.792" type="line"/>
      <point x="630.5360000000001" y="1298.032" type="line"/>
      <point x="630.5360000000001" y="1340.0" type="line"/>
      <point x="73.976" y="1340.0" type="line"/>
      <point x="73.976" y="1298.032" type="line"/>
      <point x="223.496" y="1241.792" type="line"/>
      <point x="223.496" y="98.208" type="line"/>
      <point x="73.976" y="41.968" type="line"/>
      <point x="73.976" y="0.0" type="line"/>
      <point x="630.5360000000001" y="0.0" type="line"/>
    </contour>
    <contour>
      <point x="352.664" y="-91.024" type="curve" smooth="yes"/>
      <point x="424.704" y="46.0" type="line"/>
      <point x="358.56" y="46.0" type="line"/>
      <point x="260.52" y="-93.048" type="line" smooth="yes"/>
      <point x="161.776" y="-227.216"/>
      <point x="141.38400000000001" y="-291.488"/>
      <point x="141.38400000000001" y="-361.0" type="curve" smooth="yes"/>
      <point x="141.38400000000001" y="-461.488"/>
      <point x="208.448" y="-530.0"/>
      <point x="319.864" y="-530.0" type="curve" smooth="yes"/>
      <point x="412.68" y="-530.0"/>
      <point x="485.68" y="-488.24"/>
      <point x="568.888" y="-377.632" type="curve"/>
      <point x="534.376" y="-338.184" type="line"/>
      <point x="475.28" y="-394.344"/>
      <point x="434.4" y="-412.192"/>
      <point x="391.4" y="-412.192" type="curve" smooth="yes"/>
      <point x="324.15999999999997" y="-412.192"/>
      <point x="279.584" y="-371.648"/>
      <point x="279.584" y="-301.528" type="curve" smooth="yes"/>
      <point x="279.584" y="-251.10399999999998"/>
      <point x="294.28" y="-195.648"/>
    </contour>
  </outline>
</glyph>
<glyph name="iogonek" format="2">
  <advance width="575.128"/>
  <unicode hex="012F"/>
  <outline>
    <contour>
      <point x="291.168" y="1126.728" type="curve" smooth="yes"/>
      <point x="379.976" y="1126.728"/>
      <point x="439.576" y="1191.024"/>
      <point x="439.576" y="1275.832" type="curve" smooth="yes"/>
      <point x="439.576" y="1359.368"/>
      <point x="379.976" y="1423.24"/>
      <point x="291.168" y="1423.24" type="curve" smooth="yes"/>
      <point x="203.208" y="1423.24"/>
      <point x="143.184" y="1359.368"/>
      <point x="143.184" y="1275.832" type="curve" smooth="yes"/>
      <point x="143.184" y="1191.024"/>
      <point x="203.208" y="1126.728"/>
    </contour>
    <contour>
      <point x="422.568" y="884.72" type="line"/>
      <point x="387.18399999999997" y="884.72" type="line"/>
      <point x="44.552" y="796.272" type="line"/>
      <point x="44.552" y="760.184" type="line"/>
      <point x="100.464" y="738.216"/>
      <point x="154.864" y="705.336"/>
      <point x="181.10399999999998" y="672.008" type="curve"/>
      <point x="181.10399999999998" y="90.088" type="line"/>
      <point x="48.608" y="39.12" type="line"/>
      <point x="48.608" y="0.0" type="line"/>
      <point x="546.976" y="0.0" type="line"/>
      <point x="546.976" y="39.12" type="line"/>
      <point x="412.752" y="90.088" type="line"/>
      <point x="412.752" y="692.616" type="line"/>
    </contour>
    <contour>
      <point x="296.18399999999997" y="-91.024" type="curve" smooth="yes"/>
      <point x="368.224" y="46.0" type="line"/>
      <point x="302.08" y="46.0" type="line"/>
      <point x="204.04" y="-93.048" type="line" smooth="yes"/>
      <point x="105.29599999999999" y="-227.216"/>
      <point x="84.904" y="-291.488"/>
      <point x="84.904" y="-361.0" type="curve" smooth="yes"/>
      <point x="84.904" y="-461.488"/>
      <point x="151.968" y="-530.0"/>
      <point x="263.384" y="-530.0" type="curve" smooth="yes"/>
      <point x="356.2" y="-530.0"/>
      <point x="429.2" y="-488.24"/>
      <point x="512.408" y="-377.632" type="curve"/>
      <point x="477.896" y="-338.184" type="line"/>
      <point x="418.8" y="-394.344"/>
      <point x="377.92" y="-412.192"/>
      <point x="334.92" y="-412.192" type="curve" smooth="yes"/>
      <point x="267.68" y="-412.192"/>
      <point x="223.10399999999998" y="-371.648"/>
      <point x="223.10399999999998" y="-301.528" type="curve" smooth="yes"/>
      <point x="223.10399999999998" y="-251.10399999999998"/>
      <point x="237.8" y="-195.648"/>
    </contour>
  </outline>
</glyph>
<glyph name="OE" format="2">
  <advance width="2112.392"/>
  <unicode hex="0152"/>
  <outline>
    <contour>
      <point x="1752.608" y="965.0" type="line"/>
      <point x="1662.92" y="965.0" type="line"/>
      <point x="1640.92" y="759.328" type="line"/>
      <point x="1163.128" y="759.328" type="line"/>
      <point x="1163.128" y="646.672" type="line"/>
      <point x="1640.92" y="646.672" type="line"/>
      <point x="1662.92" y="441.0" type="line"/>
      <point x="1752.608" y="441.0" type="line"/>
      <point x="1752.608" y="703.0" type="line"/>
    </contour>
    <contour>
      <point x="1044.616" y="1340.0" type="line"/>
      <point x="1044.616" y="0.0" type="line"/>
      <point x="1302.136" y="0.0" type="line"/>
      <point x="1302.136" y="1340.0" type="line"/>
    </contour>
    <contour>
      <point x="869.464" y="0.0" type="curve" smooth="yes"/>
      <point x="1822.128" y="0.0" type="line"/>
      <point x="1949.848" y="-68.328" type="line"/>
      <point x="1977.296" y="-68.328" type="line"/>
      <point x="2057.352" y="401.376" type="line"/>
      <point x="2009.992" y="413.648" type="line"/>
      <point x="1795.92" y="73.936" type="line"/>
      <point x="1852.368" y="112.656" type="line"/>
      <point x="917.616" y="112.656" type="line" smooth="yes"/>
      <point x="578.432" y="112.656"/>
      <point x="354.648" y="288.08"/>
      <point x="354.648" y="658.6" type="curve" smooth="yes"/>
      <point x="354.648" y="1064.88"/>
      <point x="582.008" y="1227.344"/>
      <point x="898.584" y="1227.344" type="curve" smooth="yes"/>
      <point x="1840.128" y="1227.344" type="line"/>
      <point x="1767.32" y="1264.88" type="line"/>
      <point x="1966.24" y="942.824" type="line"/>
      <point x="2020.024" y="954.792" type="line"/>
      <point x="1944.848" y="1400.448" type="line"/>
      <point x="1919.52" y="1400.448" type="line"/>
      <point x="1800.312" y="1340.0" type="line"/>
      <point x="867.464" y="1340.0" type="line" smooth="yes"/>
      <point x="429.224" y="1340.0"/>
      <point x="82.70400000000001" y="1101.936"/>
      <point x="82.70400000000001" y="651.936" type="curve" smooth="yes"/>
      <point x="82.70400000000001" y="227.936"/>
      <point x="351.224" y="0.0"/>
    </contour>
  </outline>
</glyph>
<glyph name="uni030F" format="2">
  <unicode hex="030F"/>
  <anchor x="0.0" y="860.48" name="_top"/>
  <anchor x="0.0" y="1340.0" name="top"/>
  <outline>
    <contour>
      <point x="-66.488" y="1009.0" type="line"/>
      <point x="-204.128" y="1340.0" type="line"/>
      <point x="-445.23199999999997" y="1340.0" type="line"/>
      <point x="-445.23199999999997" y="1309.4" type="line"/>
      <point x="-147.6" y="1009.0" type="line"/>
    </contour>
    <contour>
      <point x="189.2" y="1009.0" type="line"/>
      <point x="136.584" y="1340.0" type="line"/>
      <point x="-85.16" y="1340.0" type="line"/>
      <point x="-85.16" y="1314.488" type="line"/>
      <point x="117.968" y="1009.0" type="line"/>
    </contour>
  </outline>
</glyph>
<glyph name="uni0312" format="2">
  <unicode hex="0312"/>
  <anchor x="0.0" y="860.48" name="_top"/>
  <anchor x="-2.0" y="1340.0" name="top"/>
  <outline>
    <contour>
      <point x="134.232" y="1128.296" type="curve" smooth="yes"/>
      <point x="134.232" y="1151.6748235294117"/>
      <point x="5.416" y="1169.784"/>
      <point x="5.416" y="1223.84" type="curve" smooth="yes"/>
      <point x="5.416" y="1259.08"/>
      <point x="33.048" y="1288.688"/>
      <point x="139.088" y="1311.448" type="curve"/>
      <point x="126.512" y="1375.264" type="line"/>
      <point x="-73.576" y="1344.776"/>
      <point x="-143.904" y="1249.264"/>
      <point x="-143.904" y="1145.6" type="curve" smooth="yes"/>
      <point x="-143.904" y="1052.272"/>
      <point x="-85.12" y="998.576"/>
      <point x="-4.88" y="998.576" type="curve" smooth="yes"/>
      <point x="78.08" y="998.576"/>
      <point x="134.232" y="1050.784"/>
    </contour>
  </outline>
</glyph>
<glyph name="dotbelowcomb" format="2">
  <unicode hex="0323"/>
  <anchor x="0.0" y="0.0" name="_bottom"/>
  <anchor x="0.0" y="-530.0" name="bottom"/>
  <outline>
    <contour>
      <point x="0.0" y="-384.72" type="curve" smooth="yes"/>
      <point x="78.904" y="-384.72"/>
      <point x="133.264" y="-327.784"/>
      <point x="133.264" y="-253.304" type="curve" smooth="yes"/>
      <point x="133.264" y="-178.824"/>
      <point x="78.904" y="-121.03999999999999"/>
      <point x="0.0" y="-121.03999999999999" type="curve" smooth="yes"/>
      <point x="-78.904" y="-121.03999999999999"/>
      <point x="-133.264" y="-178.824"/>
      <point x="-133.264" y="-253.304" type="curve" smooth="yes"/>
      <point x="-133.264" y="-327.784"/>
      <point x="-78.904" y="-384.72"/>
    </contour>
  </outline>
</glyph>
<glyph name="uni0326" format="2">
  <unicode hex="0326"/>
  <anchor x="0.0" y="0.0" name="_bottom"/>
  <anchor x="0.0" y="-530.0" name="bottom"/>
  <outline>
    <contour>
      <point x="-129.392" y="-462.576" type="curve"/>
      <point x="-105.0" y="-530.424" type="line"/>
      <point x="86.032" y="-477.216"/>
      <point x="144.904" y="-381.184"/>
      <point x="144.904" y="-261.728" type="curve" smooth="yes"/>
      <point x="144.904" y="-164.696"/>
      <point x="84.208" y="-108.0"/>
      <point x="5.968" y="-108.0" type="curve" smooth="yes"/>
      <point x="-72.0" y="-108.0"/>
      <point x="-126.512" y="-154.184"/>
      <point x="-126.512" y="-234.056" type="curve" smooth="yes"/>
      <point x="-126.512" y="-269.12"/>
      <point x="-0.2959999999999994" y="-283.272"/>
      <point x="-0.2959999999999994" y="-360.12" type="curve" smooth="yes"/>
      <point x="-0.2959999999999994" y="-405.152"/>
      <point x="-26.088" y="-428.336"/>
    </contour>
  </outline>
</glyph>
<glyph name="uni0331" format="2">
  <unicode hex="0331"/>
  <anchor x="0.0" y="0.0" name="_bottom"/>
  <anchor x="0.0" y="-530.0" name="bottom"/>
  <outline>
    <contour>
      <point x="-263.568" y="-314.36" type="line"/>
      <point x="263.568" y="-314.36" type="line"/>
      <point x="263.568" y="-191.4" type="line"/>
      <point x="-263.568" y="-191.4" type="line"/>
    </contour>
  </outline>
</glyph>
<glyph name="quotesinglbase" format="2">
  <advance width="488.56"/>
  <unicode hex="201A"/>
  <outline>
    <contour>
      <point x="66.848" y="-193.704" type="curve"/>
      <point x="101.664" y="-266.032" type="line"/>
      <point x="322.648" y="-167.704"/>
      <point x="397.704" y="-59.68"/>
      <point x="397.704" y="100.22399999999999" type="curve" smooth="yes"/>
      <point x="397.704" y="211.672"/>
      <point x="331.92" y="276.424"/>
      <point x="237.568" y="276.424" type="curve" smooth="yes"/>
      <point x="144.336" y="276.424"/>
      <point x="83.888" y="211.16"/>
      <point x="83.888" y="127.896" type="curve" smooth="yes"/>
      <point x="83.888" y="84.352"/>
      <point x="234.304" y="60.08"/>
      <point x="234.304" y="-22.28" type="curve" smooth="yes"/>
      <point x="234.304" y="-76.768"/>
      <point x="197.664" y="-135.888"/>
    </contour>
  </outline>
</glyph>
<glyph name="uni27E9" format="2">
  <advance width="1000.0"/>
  <unicode hex="27E9"/>
  <outline>
    <contour>
      <point x="719.336" y="638.4" type="line"/>
      <point x="720.488" y="702.752" type="line"/>
      <point x="187.432" y="0.0" type="line"/>
      <point x="319.23199999999997" y="0.0" type="line"/>
      <point x="817.112" y="659.76" type="line"/>
      <point x="817.112" y="679.24" type="line"/>
      <point x="319.23199999999997" y="1340.0" type="line"/>
      <point x="187.432" y="1340.0" type="line"/>
    </contour>
  </outline>
</glyph>
<glyph name="fi" format="2">
  <advance width="1192.536"/>
  <unicode hex="FB01"/>
  <outline>
    <contour>
      <point x="855.784" y="743.888" type="line"/>
      <point x="798.512" y="787.856" type="line"/>
      <point x="798.512" y="90.088" type="line"/>
      <point x="666.016" y="39.12" type="line"/>
      <point x="666.016" y="0.0" type="line"/>
      <point x="1164.384" y="0.0" type="line"/>
      <point x="1164.384" y="39.12" type="line"/>
      <point x="1030.16" y="90.088" type="line"/>
      <point x="1030.16" y="692.616" type="line"/>
      <point x="1039.976" y="884.72" type="line"/>
      <point x="1004.592" y="884.72" type="line"/>
      <point x="736.496" y="860.48" type="line"/>
      <point x="298.824" y="860.48" type="line"/>
      <point x="209.432" y="869.808" type="line"/>
      <point x="23.312" y="795.664" type="line"/>
      <point x="23.312" y="756.608" type="line"/>
      <point x="194.584" y="713.104" type="line"/>
      <point x="231.04" y="743.888" type="line"/>
    </contour>
    <contour>
      <point x="426.23199999999997" y="90.088" type="line"/>
      <point x="426.23199999999997" y="1054.904" type="line" smooth="yes"/>
      <point x="426.23199999999997" y="1249.48"/>
      <point x="513.888" y="1319.032"/>
      <point x="632.832" y="1319.032" type="curve" smooth="yes"/>
      <point x="756.792" y="1319.032"/>
      <point x="774.608" y="1182.088"/>
      <point x="887.808" y="1182.088" type="curve" smooth="yes"/>
      <point x="954.648" y="1182.088"/>
      <point x="1002.16" y="1230.112"/>
      <point x="1002.16" y="1295.56" type="curve" smooth="yes"/>
      <point x="1002.16" y="1357.312"/>
      <point x="943.104" y="1423.24"/>
      <point x="760.072" y="1423.24" type="curve" smooth="yes"/>
      <point x="463.584" y="1423.24"/>
      <point x="194.584" y="1250.496"/>
      <point x="194.584" y="861.44" type="curve" smooth="yes"/>
      <point x="194.584" y="90.088" type="line"/>
      <point x="62.088" y="39.12" type="line"/>
      <point x="62.088" y="0.0" type="line"/>
      <point x="569.672" y="0.0" type="line"/>
      <point x="569.672" y="39.12" type="line"/>
    </contour>
  </outline>
</glyph>
<glyph name="four.lf" format="2">
  <advance width="1160.088"/>
  <outline>
    <contour>
      <point x="829.352" y="1351.52" type="line"/>
      <point x="654.16" y="1351.52" type="line"/>
      <point x="14.424" y="476.584" type="line"/>
      <point x="14.424" y="386.224" type="line"/>
      <point x="1085.056" y="386.224" type="line"/>
      <point x="1138.056" y="595.712" type="line"/>
      <point x="953.056" y="567.712" type="line"/>
      <point x="129.424" y="567.712" type="line"/>
      <point x="154.816" y="515.904" type="line"/>
      <point x="683.128" y="1208.32" type="line"/>
      <point x="580.68" y="1163.928" type="line"/>
      <point x="580.68" y="95.208" type="line"/>
      <point x="401.2" y="39.968" type="line"/>
      <point x="401.2" y="0.0" type="line"/>
      <point x="995.832" y="0.0" type="line"/>
      <point x="995.832" y="39.968" type="line"/>
      <point x="829.352" y="95.208" type="line"/>
    </contour>
  </outline>
</glyph>
<glyph name="lira.lf" format="2">
  <advance width="1197.984"/>
  <outline>
    <contour>
      <point x="884.4159999999999" y="590.48" type="line"/>
      <point x="81.184" y="590.48" type="line"/>
      <point x="81.184" y="497.216" type="line"/>
      <point x="884.4159999999999" y="497.216" type="line"/>
    </contour>
    <contour>
      <point x="884.4159999999999" y="865.744" type="line"/>
      <point x="81.184" y="865.744" type="line"/>
      <point x="81.184" y="772.48" type="line"/>
      <point x="884.4159999999999" y="772.48" type="line"/>
    </contour>
    <contour>
      <point x="989.576" y="948.088" type="curve"/>
      <point x="1069.2" y="961.752" type="line"/>
      <point x="1030.328" y="1239.184"/>
      <point x="877.9842091503267" y="1364.24"/>
      <point x="637.976" y="1364.24" type="curve" smooth="yes"/>
      <point x="346.48" y="1364.24"/>
      <point x="184.456" y="1179.0"/>
      <point x="184.456" y="980.456" type="curve" smooth="yes"/>
      <point x="184.456" y="711.16"/>
      <point x="428.848" y="648.184"/>
      <point x="428.848" y="447.344" type="curve" smooth="yes"/>
      <point x="428.848" y="384.592"/>
      <point x="394.0" y="290.28"/>
      <point x="155.728" y="26.848" type="curve"/>
      <point x="155.728" y="0.0" type="line"/>
      <point x="892.568" y="0.0" type="line"/>
      <point x="1015.352" y="-35.96" type="line"/>
      <point x="1040.68" y="-35.96" type="line"/>
      <point x="1129.464" y="434.416" type="line"/>
      <point x="1083.016" y="434.416" type="line"/>
      <point x="847.568" y="143.2" type="line"/>
      <point x="1010.44" y="225.712" type="line"/>
      <point x="353.96" y="225.712" type="line"/>
      <point x="347.968" y="156.872" type="line"/>
      <point x="519.312" y="310.448"/>
      <point x="612.272" y="451.44"/>
      <point x="612.272" y="561.832" type="curve" smooth="yes"/>
      <point x="612.272" y="694.576"/>
      <point x="448.784" y="802.152"/>
      <point x="448.784" y="965.6" type="curve" smooth="yes"/>
      <point x="448.784" y="1100.056"/>
      <point x="528.0" y="1194.608"/>
      <point x="702.92" y="1194.608" type="curve" smooth="yes"/>
      <point x="848.936" y="1194.608"/>
      <point x="943.064" y="1119.592"/>
    </contour>
  </outline>
</glyph>
<glyph name="six.lf" format="2">
  <advance width="1108.536"/>
  <outline>
    <contour>
      <point x="909.112" y="1387.0" type="line"/>
      <point x="265.368" y="1204.512"/>
      <point x="82.55199999999999" y="897.0"/>
      <point x="82.55199999999999" y="523.0" type="curve" smooth="yes"/>
      <point x="82.55199999999999" y="214.824"/>
      <point x="252.336" y="-24.240000000000002"/>
      <point x="573.648" y="-24.240000000000002" type="curve" smooth="yes"/>
      <point x="849.456" y="-24.240000000000002"/>
      <point x="1049.8319999999999" y="155.008"/>
      <point x="1049.8319999999999" y="424.752" type="curve" smooth="yes"/>
      <point x="1049.8319999999999" y="659.176"/>
      <point x="897.56" y="793.624"/>
      <point x="685.568" y="793.624" type="curve" smooth="yes"/>
      <point x="549.144" y="793.624"/>
      <point x="465.18399999999997" y="750.256"/>
      <point x="214.096" y="556.296" type="curve"/>
      <point x="281.24" y="540.536" type="line"/>
      <point x="370.272" y="613.664"/>
      <point x="486.856" y="648.584"/>
      <point x="590.624" y="648.584" type="curve" smooth="yes"/>
      <point x="735.76" y="648.584"/>
      <point x="810.312" y="552.576"/>
      <point x="810.312" y="360.76" type="curve" smooth="yes"/>
      <point x="810.312" y="178.512"/>
      <point x="731.512" y="74.96000000000001"/>
      <point x="582.344" y="74.96000000000001" type="curve" smooth="yes"/>
      <point x="416.624" y="74.96000000000001"/>
      <point x="335.072" y="247.08052459016395"/>
      <point x="335.072" y="542.0" type="curve" smooth="yes"/>
      <point x="335.072" y="956.456"/>
      <point x="497.032" y="1171.8"/>
      <point x="952.352" y="1318.312" type="curve"/>
    </contour>
  </outline>
</glyph>
<glyph name="uni20B2.lf.1" format="2">
  <advance width="1228.6"/>
  <outline>
    <contour>
      <point x="648.592" y="1266.584" type="curve" smooth="yes"/>
      <point x="824.728" y="1266.584"/>
      <point x="839.16" y="1086.072"/>
      <point x="966.4" y="1086.072" type="curve" smooth="yes"/>
      <point x="1022.728" y="1086.072"/>
      <point x="1065.24" y="1126.736"/>
      <point x="1065.24" y="1185.304" type="curve" smooth="yes"/>
      <point x="1065.24" y="1278.088"/>
      <point x="953.208" y="1364.24"/>
      <point x="716.184" y="1364.24" type="curve" smooth="yes"/>
      <point x="341.352" y="1364.24"/>
      <point x="103.216" y="1083.208"/>
      <point x="103.216" y="658.248" type="curve" smooth="yes"/>
      <point x="103.216" y="221.256"/>
      <point x="310.144" y="-24.240000000000002"/>
      <point x="662.072" y="-24.240000000000002" type="curve" smooth="yes"/>
      <point x="801.76" y="-24.240000000000002"/>
      <point x="954.208" y="6.064"/>
      <point x="1078.312" y="69.816" type="curve"/>
      <point x="1078.312" y="71.936" type="line"/>
      <point x="1058.856" y="163.288" type="line"/>
      <point x="1058.856" y="552.584" type="line"/>
      <point x="1154.296" y="601.856" type="line"/>
      <point x="1154.296" y="641.824" type="line"/>
      <point x="673.92" y="641.824" type="line"/>
      <point x="673.92" y="601.856" type="line"/>
      <point x="819.088" y="548.344" type="line"/>
      <point x="819.088" y="50.208" type="line"/>
      <point x="867.528" y="110.936" type="line"/>
      <point x="814.888" y="82.992"/>
      <point x="755.032" y="75.568"/>
      <point x="696.512" y="75.568" type="curve" smooth="yes"/>
      <point x="494.6" y="75.568"/>
      <point x="354.008" y="287.048"/>
      <point x="354.008" y="722.24" type="curve" smooth="yes"/>
      <point x="354.008" y="1082.672"/>
      <point x="474.256" y="1266.584"/>
    </contour>
    <contour>
      <point x="673.376" y="1302.52" type="line"/>
      <point x="673.376" y="1535.0" type="line"/>
      <point x="589.2" y="1535.0" type="line"/>
      <point x="589.2" y="1302.52" type="line"/>
    </contour>
    <contour>
      <point x="589.2" y="-195.0" type="line"/>
      <point x="673.376" y="-195.0" type="line"/>
      <point x="673.376" y="13.24" type="line"/>
      <point x="589.2" y="13.24" type="line"/>
    </contour>
  </outline>
</glyph>
